<?xml version="1.0" encoding="utf-8"?>
<svg width="18" height="18" viewBox="0 0 18 18" fill="none" xmlns="http://www.w3.org/2000/svg">
  <g clip-path="url(#clip0_1_127)">
    <path d="M 13.313 0.75 C 11.316 0.75 9.667 2.604 9 3.48 C 8.333 2.604 6.684 0.75 4.687 0.75 C 2.103 0.75 0 3.126 0 6.047 C 0 7.64 0.632 9.125 1.74 10.142 C 1.756 10.169 1.775 10.195 1.798 10.218 L 8.735 17.141 C 8.808 17.213 8.904 17.25 9 17.25 C 9.096 17.25 9.192 17.213 9.265 17.14 L 16.433 9.975 L 16.507 9.903 C 16.565 9.848 16.623 9.792 16.688 9.72 C 16.715 9.694 16.737 9.664 16.755 9.631 C 17.558 8.647 18 7.377 18 6.047 C 18 3.126 15.897 0.75 13.313 0.75 Z" style="fill: rgb(171, 6, 6);"/>
  </g>
  <defs>
    <clipPath id="clip0_1_127">
      <rect width="18" height="18" fill="white"/>
    </clipPath>
  </defs>
</svg>